<?xml version="1.0" encoding="UTF-8"?>
<svg xmlns="http://www.w3.org/2000/svg" viewBox="217 85 755 755">
  <defs>
    <style>
      .st0 { fill: #fcbf0e; }
      .st1 { fill: #098809; }
      .st2 { fill: #041b3e; }
    </style>
  </defs>
  <path class="st2" d="M365.56,497.87l3-.44,25.34-7.33c12.78,47.31,46.15,99.2,98.43,105.1-5.33-10.25-10.08-19.56-10.07-31.42l.27-405.61c.02-32.27,29.09-53.79,59.44-53.78h172.94c32.48.01,58.95,23.63,58.93,56.82l-.28,408.62c-.02,28.09-23.1,52.98-51.37,53.08l-224.04.76c-22.44.08-42.66-5.25-61.18-17.75-36.38-24.54-60.5-65.99-71.39-108.07ZM744.86,561.27l-.03-398.99c0-15.32-13.85-28.54-28.88-28.54l-175.87.02c-15.76,0-29.04,13.75-29.03,29.41l.06,398.61c0,16.37,14.06,30.01,29.92,30.01l173.9-.03c15.94,0,29.93-13.68,29.93-30.48Z"/>
  <path class="st2" d="M897.59,498.44c-10.91,90.67-56.71,177.8-131.26,231.79-56.61,41-123.05,55.48-191.59,36.99l-4.58,11.02c-1.74,4.19-7.25,4.9-10.85,3.5l-15.49-6.05c-13.99,15.89-36.39,21.9-56.55,13.65l-90.49-37.04c-5.87-2.4-7.78-7.32-5.57-13.07l6.34-16.54-59.63-24.55c-1.67-.69-3.49-4.26-2.89-5.76l4.2-10.46c.92-2.28,5.32-2.93,7.6-1.73l57.48,23.81,19.3-47.36-59.63-24.48c-2.7-1.93-3.24-5.18-1.98-7.94l3.92-8.58c1.16-2.54,5.15-2.33,7.67-1.28l57.69,23.93,4.79-11.32c1.59-3.75,6.5-6.48,10.83-4.67l92.29,38.51c19.91,8.31,34.62,31.74,30.64,53.87l15.96,6.72c3.36,1.42,3.24,7.78,2.31,10.48l-2.66,7.72c61.51,17.08,122.75-1.01,172.11-40.08,63.6-50.33,102.64-129.28,111.67-209.17l26.23,6.08,2.13,2.01ZM459.95,748.17l46.18-35.05-17.36-7.38,15.79-29.1-45.04,33.94,17.08,7.52-16.65,30.07Z"/>
  <path class="st1" d="M393.89,490.11l-25.34,7.33-3,.44c-5.67-21.9-8.3-43.91-6.55-66.9,3.09-40.62,17.22-78.43,40.12-111.79,17.04-24.48,37.5-44.99,63.06-61.31l.04,36.38c-30.72,24.58-52.59,57.62-65.03,95.03-11.09,33-12.38,67.23-3.3,100.83Z"/>
  <path class="st1" d="M897.59,498.44l-2.13-2.01-26.23-6.08c8.33-73.68-17.1-149.2-75.43-196.24l.21-36.13c12.48,8.13,22.22,16.08,32.61,25.57,41.56,40.54,67.96,94.49,72.03,152.57l.65,9.3c1.25,17.82.46,35.09-1.7,53.02Z"/>
  <polygon class="st1" points="583.21 495.83 599.75 439.71 617.89 380.94 556.25 380.55 673.08 226.98 637.35 339.03 701.39 339.19 583.21 495.83"/>
  <path class="st2" d="M658.36,168.85l-59.29-.03c-4.8,0-7.68-4.38-7.39-8.29.32-4.24,3.51-7.53,8.34-7.52l57.94.08c3.95,0,6.33,4.42,6.52,7.49.22,3.62-1.86,6.9-6.12,8.27Z"/>
</svg>
